<?xml version="1.0" encoding="UTF-8" standalone="no"?>
<svg xmlns="http://www.w3.org/2000/svg" viewBox="-30 -45 620 230" width="100%" height="100%" font-family="sans, ubuntu sans" font-size=".6rem" >
<defs>
  <marker
     id="arrow"
     markerWidth="20"
     markerHeight="20"
     viewBox="-10 -10 20 20"
     refX="0"
     refY="0"
     orient="auto"
     markerUnits="strokeWidth"
     stroke="context-stroke"
     fill="context-stroke">
    <path d="M0,0 L-10,-5 L-10,5 z" />
  </marker>
</defs>
<rect stroke="grey" fill="transparent" x="0" y="0" width="540" height="150" />
<path stroke="#00f" opacity="10%" d="M0,100 h540"/>
<path opacity="30%" fill="transparent" stroke="red" marker-end="url(#arrow)" d="M220,95 s 50 -50 98 0"/>
<circle fill="red" r="4" cy="100" cx="220" />
<circle fill="green" r="4" cy="100" cx="320" />
<text x="0" y="165" >0</text>
<text x="0" y="-5" >V</text>
<path stroke="orange" opacity="20%" d="M0,-5 v160" />
<text x="220" y="165" >Vb_o</text>
<text x="220" y="-5" >V - Vb_o</text>
<path stroke="orange" opacity="20%" d="M220,-5 v160" />
<text x="320" y="165" >Vb_o + N</text>
<text x="320" y="-5" >V - Vb_o - N</text>
<path stroke="orange" opacity="20%" d="M320,-5 v160" />
<text x="540" y="165" >V</text>
<text x="540" y="-5" >0</text>
<path stroke="orange" opacity="20%" d="M540,-5 v160" />
<text x="250" y="-20" font-size="1.3rem">Va</text>
<text x="250" y="185" font-size="1.3rem">Vb</text>
<text x="170" y="40" text-anchor="middle">Escenario de partida</text>
<path stroke="black" opacity="40%" d="M170,50 l45 45" marker-end="url(#arrow)" />
<text x="370" y="40" text-anchor="middle">Escenario post trasvase</text>
<path stroke="black" opacity="40%" d="M370,50 l-45 45" marker-end="url(#arrow)" />
</svg>
