<?xml version="1.0" encoding="UTF-8" standalone="no"?>
<svg xmlns="http://www.w3.org/2000/svg" viewBox="-30 -45 620 280" width="100%" height="100%" font-family="sans, ubuntu sans" font-size=".6rem" >
<defs>
  <marker
     id="arrow"
     markerWidth="20"
     markerHeight="20"
     viewBox="-10 -10 20 20"
     refX="0"
     refY="0"
     orient="auto"
     markerUnits="strokeWidth"
     stroke="context-stroke"
     fill="context-stroke">
    <path d="M0,0 L-10,-5 L-10,5 z" />
  </marker>
</defs>
<rect stroke="grey" fill="transparent" x="0" y="0" width="540" height="200" />
<text fill="darkred" x="10" y="120">Sb=0</text>
<text fill="darkgreen" x="110" y="120">Sb=1</text>
<text fill="darkred" x="210" y="120">Sb=2</text>
<text fill="darkgreen" x="310" y="120">Sb=3</text>
<text fill="darkred" x="410" y="120">Sb=4</text>
<text fill="darkgreen" x="510" y="120">Sb=5</text>
<text fill="darkred" x="10" y="110">Sa=5</text>
<text fill="darkgreen" x="110" y="110">Sa=4</text>
<text fill="darkred" x="210" y="110">Sa=3</text>
<text fill="darkgreen" x="310" y="110">Sa=2</text>
<text fill="darkred" x="410" y="110">Sa=2</text>
<text fill="darkgreen" x="510" y="110">Sa=0</text>
<path stroke="#00f" opacity="10%" d="M0,100 h540"/>
<text x="-20" y="100" >Pc</text>
<circle fill="red" r="4" cy="100" cx="0" />
<path opacity="30%" fill="transparent" stroke="red" marker-end="url(#arrow)" d="M0,95 s 50 -50 98 0"/>
<path opacity="30%" fill="transparent" stroke="red" marker-end="url(#arrow)" d="M100,95 s 50 -50 98 0"/>
<path opacity="30%" fill="transparent" stroke="red" marker-end="url(#arrow)" d="M200,95 s 50 -50 98 0"/>
<path opacity="30%" fill="transparent" stroke="red" marker-end="url(#arrow)" d="M300,95 s 50 -50 98 0"/>
<path opacity="30%" fill="transparent" stroke="red" marker-end="url(#arrow)" d="M400,95 s 50 -50 98 0"/>
<!--
<path opacity="30%" fill="transparent" stroke="green" marker-end="url(#arrow)" d="M140,105 s -50 50 -98 0" />
<path opacity="30%" fill="transparent" stroke="green" marker-end="url(#arrow)" d="M240,105 s -50 50 -98 0" />
<path opacity="30%" fill="transparent" stroke="green" marker-end="url(#arrow)" d="M340,105 s -50 50 -98 0" />
<path opacity="30%" fill="transparent" stroke="green" marker-end="url(#arrow)" d="M440,105 s -50 50 -98 0" />
<path opacity="30%" fill="transparent" stroke="green" marker-end="url(#arrow)" d="M540,105 s -50 50 -98 0" />
-->
<circle fill="red" r="4" cy="100" cx="100" />
<circle fill="red" r="4" cy="100" cx="200" />
<circle fill="red" r="4" cy="100" cx="300" />
<circle fill="red" r="4" cy="100" cx="400" />
<circle fill="red" r="4" cy="100" cx="500" />
<!--
<circle fill="green" r="4" cy="100" cx="40" />
<circle fill="green" r="4" cy="100" cx="140" />
<circle fill="green" r="4" cy="100" cx="240" />
<circle fill="green" r="4" cy="100" cx="340" />
<circle fill="green" r="4" cy="100" cx="440" />
<circle fill="green" r="4" cy="100" cx="540" />
-->
<text x="0" y="215" >0</text>
<text x="0" y="-5" >5Pc+R</text>
<path stroke="orange" opacity="20%" d="M0,-5 v210" />
<text x="100" y="215" >Pc</text>
<text x="100" y="-5" >4Pc+R</text>
<path stroke="orange" opacity="20%" d="M100,-5 v210" />
<text x="200" y="215" >2Pc</text>
<text x="200" y="-5" >3Pc+R</text>
<path stroke="orange" opacity="20%" d="M200,-5 v210" />
<text x="300" y="215" >3Pc</text>
<text x="300" y="-5" >2Pc+R</text>
<path stroke="orange" opacity="20%" d="M300,-5 v210" />
<text x="400" y="215" >4Pc</text>
<text x="400" y="-5" >Pc+R</text>
<path stroke="orange" opacity="20%" d="M400,-5 v210" />
<text x="500" y="215" >5Pc</text>
<text x="500" y="-5" >R</text>
<path stroke="orange" opacity="20%" d="M500,-5 v210" />
<text x="540" y="215" >5Pc+R</text>
<text x="540" y="-5" >0</text>
<path stroke="orange" opacity="20%" d="M540,-5 v210" />
<text x="250" y="-20" >Va</text>
<text x="250" y="235" >Vb</text>
</svg>
