<?xml version="1.0" encoding="UTF-8"?>
<!DOCTYPE svg PUBLIC "-//W3C//DTD SVG 1.1//EN" "http://www.w3.org/Graphics/SVG/1.1/DTD/svg11.dtd">
<svg version="1.1" id="Layer_1" xmlns="http://www.w3.org/2000/svg" xmlns:xlink="http://www.w3.org/1999/xlink" x="0px" y="0px" viewBox="0 0 1825.241 1649.739" enable-background="new 0 0 1825.241 1649.739" xml:space="preserve">
<g>
	<path d="M534.757,882.7c-1.321-1.45-1.343-1.495-2.316-4.86c-3.048-10.515-8.819-20.927-15.263-27.527   c-2.482-2.547-3.036-2.759-7.953-5.704c-0.599-6.967-0.631-19.032-12.05-33.793c-5.492-7.099-14.323-15.043-24.479-20.471   c-1.011-4.163-3.207-9.566-11.023-16.986c-4.735-4.498-9.866-18.68-37.279-32.914c-21.573-11.203-39.967-13.284-44.464-15.384   c-17.101-7.995-32.976-9.351-49.364-8.926c-19.591-10.523-38.949-11.241-60.312-6.119c-20.619-3.167-37.516-1.571-55.661,5.338   c-34.687-3.388-61.856,6.006-82.407,25.398c-29.651-3.945-55.845,39.898-69.835,48.11c-11.535,6.793-19.75,21.134-24.202,34.44   c-1.701,5.09-2.087,3.879-5.583,10.827c-4.143,8.263-7.155,19.823-1.352,27.036c0.945,1.164,0.903,1.085-0.397,3.365   c-9.333,16.262,2.299,36.93,15.152,50.578c4.746,23.053,19.416,44.257,71.942,53.93c1.748,5.576,3.614,7.3,8.792,12.612   l0.326,2.843c0.666,5.671,1.931,4.889,1.442,7.185c-3.202,14.764,19.581,24.73,23.957,28.362   c34.585,28.622,65.217,23.18,75.115,24.162c11.666,1.146,40.63-4.981,40.63-4.981s7.52,19.125,24.024,31.022   c4.873,3.525,31.131,52.63,33.079,58.089c3.791,10.576,11.064,21.354,21.766,24.158c4.065,1.072,8.009-0.149,10.296-0.433   c15.941-1.958-6.132-37.665-4.338-42.317c0.177-0.461,2.297,0.442,11.412,2.352c6.808,1.432,3.621,1.107,14.357,1.294   c21.837,0.373,17.712,4.078,46.106-2.419c13.683-3.133,21.832-6.275,30.549-11.782c11.162-7.051,19.637-17.789,20.471-25.947   c0.147-1.428,0.161-1.446,1.83-3.151c3.021-3.084,4.092-5.579,5.092-11.813c0.704-4.406,0.478-1.756-1.352-11.291   c3.02-0.003,9.742,0.047,12.849-0.29c39.85-4.335,54.848-38.907,56.532-78.792C551.037,963.273,552.504,902.203,534.757,882.7z"/>
	<path enable-background="new    " d="M1746.45,808.734c-13.806-53.76-57.225-87.804-116.958-94.26   c-5.192-0.561-10.242-0.833-15.165-0.833c-51.924,0-88.868,30.322-109.99,71.765c-22.066-43.252-59.732-71.305-114.651-71.304   c-3.635,0-7.348,0.123-11.135,0.372c-54.622,3.6-101.544,36.263-116.328,99.935c-26.593,114.535,99.278,231.616,242.113,345.516   C1656.239,1046.797,1774.75,918.932,1746.45,808.734z"/>
	<g>
		<path d="M369.224,611.986c0.639,4.784-15.133-28.957,237.002,491.839c28.061,57.963,20.165,46.421,32.325,49.455    c-0.042,6.148-58.937,107.49-235.423,126.255c-129.478,13.767-275.218-13.343-352.051-121.689    c-0.754-1.063-1.141-2.387-1.638-3.463c22.439-25.412-53.701,127.941,267.6-535.923c2.452-5.064,4.127-7.422,4.234-10.258    c0.138-3.664-4.35-4.758-6.745-7.015c-15.097-14.229-15.946-34.343-10.435-48.036c14.902-37.029,68.607-35.411,81.161,2.814    c0.949,2.89,1.652,5.862,2.462,8.77c7.451,3.12,47.516-18.618,56.029-23.634c32.646-19.235,56.828-39.053,108.049-77.443    c67.393-50.51,183.974-102.879,305.389-111.798c6.597-0.485,3.602,1.444,11.356-28.274c8.799-33.719,18.05-36.251,12.956-46.328    c-0.255-0.505-0.142-1.454,0.179-1.952c3.471-5.377,0.491-9.58-2.162-14.102c-21.596-36.81-23.81-74.744-5.703-113.476    c15.98-34.184,26.008-97.697,31.381-108.843c8.96-18.583,28.015-18.971,37.274-0.021c3.814,7.807,10.219,43.533,20.191,78.139    c10.791,37.451,43.374,78.442,6.107,143.321c-7.983,13.898-2.317,3.245-3.661,22.923c-0.174,2.549,0.945,5.397,2.123,7.796    c19.301,39.306,13.176,60.182,22.293,60.804c261.158,17.818,356.834,183.47,469.236,213.732c2.562-2.54,2.498-5.789,3.398-8.642    c13.152-41.714,71.372-39.975,82.654,0.141c7.604,27.035-8.044,40.754-18.76,50.096c0.41,4.327,2.878,7.72,4.625,11.334    c290.203,600.211,252.538,529.938,267.111,534.733c1.394,5.319-62.609,116.424-260.344,128.419    c-172.66,10.473-281.241-54.229-325.564-121.913c-1.268-1.936-3.106-3.716-2.592-6.402c13.293-2.254-13.27,44.728,264.847-530.15    c1.611-3.329,3.806-6.474,4.236-10.257c-1.857-2.047-4.373-2.07-6.656-2.346c-77.134-9.294-142.06-52.453-206.185-98.66    c-108.943-78.502-273.805-107.128-274.001-89.573c-0.61,54.867-9.781,108.976-32.056,169.979    c-5.197,14.231-7.129,15.708-3.932,19.885c5.051,6.601-5.667,4.557-5.232,13.186c3.813,75.739,27.033,467.972,23.342,529.394    c-1.92,31.943-13.853,36.115-1.912,48.543c22.993,23.931,4.909,54.269,5.392,57.314c0.638,4.022,3.538,7.412-0.247,12.068    c-1.999,2.46-1.321,3.227,3.133,25.901c13.609,69.286,18.204,81.888,14.656,118.196c-2.376,24.323-4.901,63.354-4.338,70.409    c0.238,2.991,2.388,2.967,11.779,2.974c91.183,0.075,89.378-0.333,96.136,0.922c18.423,3.421,31.795,15.49,37.319,28.82    c2.034,4.91,3.446,3.948,32.04,3.934c21.597-0.01,40.53,8.552,50.994,26.542c3.963,6.813,6.382,5.067,15.713,7.175    c15.923,3.595,23.614,12.089,32.937,25.645c11.699,17.01,50.878,13.234,58.963,34.646c2.914,7.717-3.475,7.02-11.236,7.02    c-838.074,0.013-785.536,0.125-791.051-0.306c-6.362-0.497-2.313-11.056,5.366-16.677c7.737-5.662,15.401-7.356,35.098-13.683    c14.31-4.598,15.179-10.571,23.113-20.486c8.715-10.892,21.178-16.831,34.477-17.738c3.077-0.21,4.766-1.749,6.312-4.334    c11.35-18.985,28.576-27.532,50.303-27.78c28.722-0.327,31.54,1.633,33.772-4.481c4.384-12.016,19.529-26.959,42.698-29.009    c3.608-0.319-1.983-0.145,91.083-0.208c8.154-0.005,10.58,0.039,10.843-2.849c1.124-12.348-2.327-53.963-3.955-69.375    c-3.931-37.2,2.767-59.541,16.566-130.307c4.076-20.9,0.128-13.577-1.178-19.371c-0.695-3.085,2.911-4.728,2.199-7.569    c-0.872-3.484-5.774-12.337-6.359-24.603c-1.602-33.616,22.741-30.876,15.606-51.259c-10.552-30.141-9.925-45.577,15.567-520.563    c2.271-42.314,3.79-43.297-2.244-45.98c-2.641-1.174-2.884-4.149-1.124-6.087c2.664-2.933,1.608-5.565,0.47-8.456    c-21.971-55.834-35.844-117.812-36.308-177.363c-0.07-8.949,0.497-9.674-9.69-9.325c-24.312,0.832-48.114,5.035-71.719,10.547    c-206.337,48.176-248.375,164.694-396.88,182.663C375.268,610.637,372.643,611.32,369.224,611.986z M349.801,1140.551    c0.005,13.344-0.937,11.932,12.257,11.938c270.833,0.124,255.97,2.463,252.579-5.151c-0.445-1-252.632-522.151-257.512-531.806    c-2.189-4.331-7.09-3.885-7.245,1.279C349.709,622.518,349.8,1139.519,349.801,1140.551z M328.449,620.956    C58.48,1178.661,74.63,1145.163,73.002,1149.235c-1.367,3.418,1.847,3.26,11.797,3.262c1,0,245.811,0.039,247.56-0.019    c6.978-0.234,6.19-0.266,6.19-14.905C338.558,603.647,343.173,590.542,328.449,620.956z M1775.599,1152.508    c-1.744-6.651-256.991-533.673-261.062-539.699c-8.012-11.862-5.455,8.253-5.409,528.154c0.001,12.532-1.048,11.531,11.587,11.534    C1602.63,1152.519,1677.522,1152.508,1775.599,1152.508z M1231.331,1151.404c4.208,1.498-15.136,1.216,253.604,1.085    c13.909-0.007,12.678,1.505,12.686-12.499c0.001-1.072,0.111-517.533-0.103-523.646c-0.749-21.366-11.698,8.69-261.116,524.136    C1234.789,1143.811,1233.282,1147.193,1231.331,1151.404z M335.582,569.45c-0.112,11.925,17.89,10.935,17.157-0.429    C352.031,558.044,335.685,558.45,335.582,569.45z M1494.966,568.869c-0.853,11.539,16.962,12.434,17.075,0.768    C1512.148,558.583,1495.77,558.001,1494.966,568.869z"/>
	</g>
</g>
<g id="Red_Heart">
	<g id="Brain_Silhouette_2">
	</g>
</g>
</svg>